<?xml version="1.0" standalone="no"?>
<!DOCTYPE svg PUBLIC "-//W3C//DTD SVG 20010904//EN"
 "http://www.w3.org/TR/2001/REC-SVG-20010904/DTD/svg10.dtd">
<svg version="1.0" xmlns="http://www.w3.org/2000/svg"
 width="400.000000pt" height="400.000000pt" viewBox="0 0 400.000000 400.000000"
 preserveAspectRatio="xMidYMid meet">

<g transform="translate(0.000000,400.000000) scale(0.100000,-0.100000)"
fill="#000000" stroke="none">
<path d="M1768 3799 c-521 -72 -976 -366 -1281 -829 -147 -223 -227 -438 -262
-703 -55 -423 45 -878 265 -1207 345 -516 894 -829 1520 -866 257 -15 564 48
790 161 106 53 247 147 320 213 55 50 63 78 15 52 -41 -22 -41 -2 -1 39 35 36
36 40 20 49 -18 10 -18 11 0 31 11 12 16 24 12 28 -9 10 -65 -21 -155 -86
-195 -139 -267 -149 -161 -22 27 33 50 63 50 66 0 16 -67 -1 -185 -50 -157
-64 -240 -88 -385 -109 -155 -23 -355 -37 -382 -27 -25 10 -23 10 50 36 6 2
12 11 12 19 0 17 -26 23 -158 31 -104 6 -298 44 -382 73 -173 60 -380 192
-521 332 -181 180 -309 426 -371 716 -20 93 -23 137 -23 304 0 208 10 280 62
445 130 414 467 754 907 916 376 140 838 100 1191 -102 239 -136 396 -281 546
-503 75 -110 68 -101 75 -93 23 23 -70 179 -185 311 -34 38 -61 73 -61 78 0
17 57 -22 98 -66 88 -96 232 -345 297 -515 73 -193 95 -369 76 -621 -13 -167
-40 -312 -77 -408 -28 -74 -40 -122 -29 -122 60 0 123 160 161 410 21 135 24
487 6 560 -6 25 -7 49 -3 53 44 44 86 -371 62 -618 -26 -281 -93 -485 -215
-664 -64 -92 -86 -137 -86 -176 0 -33 10 -32 47 8 54 57 132 182 193 310 258
540 198 1261 -149 1779 -175 262 -356 418 -667 576 -163 82 -305 134 -464 169
-95 20 -149 25 -310 28 -107 2 -225 0 -262 -6z m536 -214 c230 -35 500 -164
633 -303 29 -31 49 -58 44 -60 -6 -2 -54 25 -108 60 -175 115 -236 146 -362
188 -156 51 -263 69 -464 77 -135 5 -157 8 -155 22 2 8 14 18 28 22 46 13 284
9 384 -6z"/>
<path d="M2515 2666 c-185 -36 -319 -125 -382 -254 -24 -49 -28 -69 -28 -142
1 -112 23 -175 85 -243 80 -88 166 -125 403 -177 157 -34 201 -50 240 -87 21
-21 27 -36 27 -68 0 -87 -64 -126 -217 -133 -61 -3 -129 0 -165 8 -92 18 -210
66 -285 116 -104 70 -103 71 -103 -110 l0 -153 93 -31 c151 -50 238 -64 397
-65 293 -2 489 84 580 255 31 56 35 73 38 158 3 79 0 105 -18 152 -46 122
-159 196 -386 250 -258 62 -286 70 -318 98 -64 58 -29 148 73 187 56 22 210
24 291 4 68 -17 184 -69 244 -110 24 -17 49 -31 55 -31 7 0 11 51 11 153 l0
153 -67 21 c-174 55 -424 77 -568 49z"/>
<path d="M940 2000 l0 -650 470 0 470 0 0 125 0 125 -305 0 -305 0 0 165 0
165 280 0 280 0 0 120 0 120 -280 0 -280 0 0 120 0 120 305 0 305 0 0 120 0
120 -470 0 -470 0 0 -650z"/>
</g>
</svg>
